Coordinates
version=1
nRows=29
nColumns=22
inDegrees=yes

Units are S.I. units (second, meters, Newtons, ...)
If the header above contains a line with 'inDegrees', this indicates whether rotational values are in degrees (yes) or radians (no).

endheader
time	pelvis_tilt	pelvis_list	pelvis_rotation	pelvis_tx	pelvis_ty	pelvis_tz	hip_flexion_r	hip_adduction_r	hip_rotation_r	knee_angle_r	ankle_angle_r	subtalar_angle_r	hip_flexion_l	hip_adduction_l	hip_rotation_l	knee_angle_l	ankle_angle_l	subtalar_angle_l	lumbar_extension	lumbar_bending	lumbar_rotation
      1.91000000	    -11.89751986	     -0.96033999	     -2.45415387	     -0.51070486	      0.97656460	      0.38799346	     34.00078495	     -0.32596953	     -0.43707311	    -36.10915887	     16.26378581	     -2.99489035	     18.15455871	      3.29346127	     -3.57080689	    -18.38369046	     19.28904504	     -6.67856552	      2.71450805	      0.78882196	      1.55648422
      1.92000000	    -11.91175976	     -1.00705212	     -2.46398774	     -0.50974444	      0.97656428	      0.38834414	     34.26148473	     -0.20324443	     -0.50910194	    -35.53812745	     16.24045198	     -2.90132697	     18.11217929	      3.22607970	     -3.55553449	    -18.39933631	     19.35472053	     -6.69291840	      2.68343408	      0.80162312	      1.54096421
      1.93000000	    -11.92137620	     -1.04750463	     -2.48708015	     -0.50874493	      0.97655419	      0.38874695	     34.51783500	     -0.07935745	     -0.56505229	    -34.94425645	     16.20782294	     -2.81018301	     18.06450526	      3.15869797	     -3.55318972	    -18.41979590	     19.43099849	     -6.69865642	      2.64457832	      0.80763417	      1.54070981
      1.94000000	    -11.92773907	     -1.08897649	     -2.51969511	     -0.50771082	      0.97653299	      0.38919754	     34.76916604	      0.05224081	     -0.60788745	    -34.32998868	     16.15513971	     -2.71545203	     18.01582203	      3.08549701	     -3.55782378	    -18.45087602	     19.51989176	     -6.69670360	      2.59812823	      0.81586012	      1.55236812
      1.95000000	    -11.93100599	     -1.12948474	     -2.55565715	     -0.50663576	      0.97650350	      0.38970230	     35.01429744	      0.18893651	     -0.63678815	    -33.70048454	     16.08094359	     -2.61745749	     17.96240441	      3.00843860	     -3.56699943	    -18.48351538	     19.61839585	     -6.68871791	      2.54727666	      0.81968967	      1.56490209
      1.96000000	    -11.93003304	     -1.17031870	     -2.59535514	     -0.50551747	      0.97646625	      0.39022901	     35.25259464	      0.32735506	     -0.65567264	    -33.05973219	     15.98243319	     -2.51225957	     17.90469722	      2.92967272	     -3.57572090	    -18.52403809	     19.72404178	     -6.67774423	      2.48892607	      0.82551836	      1.57949558
      1.97000000	    -11.92516840	     -1.21243259	     -2.63425186	     -0.50434328	      0.97642531	      0.39078097	     35.48184896	      0.46726496	     -0.66718965	    -32.41030623	     15.86324958	     -2.39102344	     17.84059763	      2.84804034	     -3.58595687	    -18.56852146	     19.83718739	     -6.66552385	      2.42536871	      0.83320803	      1.58830166
      1.98000000	    -11.91807621	     -1.25084337	     -2.67057227	     -0.50311302	      0.97637937	      0.39134282	     35.70482577	      0.60224464	     -0.66635232	    -31.75743553	     15.72966578	     -2.26286934	     17.76748608	      2.77138752	     -3.58761270	    -18.60811751	     19.94929715	     -6.65583228	      2.35908565	      0.83718556	      1.59637907
      1.99000000	    -11.90720741	     -1.28988948	     -2.70376080	     -0.50181791	      0.97632998	      0.39191856	     35.91875956	      0.73449819	     -0.66316401	    -31.10472372	     15.58778435	     -2.11612328	     17.68618805	      2.69305120	     -3.59312069	    -18.64849876	     20.06728934	     -6.64841921	      2.29030745	      0.84151230	      1.59800914
      2.00000000	    -11.89604866	     -1.32540337	     -2.73482559	     -0.50045292	      0.97627189	      0.39249599	     36.12686915	      0.85951640	     -0.65091250	    -30.45339756	     15.44218370	     -1.95745500	     17.59517404	      2.61919830	     -3.59674195	    -18.68115405	     20.18751646	     -6.64328807	      2.22243901	      0.84497602	      1.59565653
      2.01000000	    -11.88339248	     -1.35624584	     -2.76539110	     -0.49901625	      0.97620352	      0.39307730	     36.32874882	      0.97504301	     -0.63602048	    -29.80875382	     15.30004663	     -1.78541214	     17.49537017	      2.54909904	     -3.60698073	    -18.70856031	     20.31202083	     -6.64023462	      2.15610324	      0.84721176	      1.58799024
      2.02000000	    -11.86406335	     -1.38137520	     -2.79486197	     -0.49749404	      0.97612979	      0.39365730	     36.51825612	      1.07746984	     -0.62531252	    -29.17314005	     15.17955955	     -1.56493616	     17.38047813	      2.48319163	     -3.64227278	    -18.73020295	     20.44539526	     -6.63640921	      2.08653674	      0.84915984	      1.55980724
      2.03000000	    -11.85601768	     -1.39137280	     -2.82935990	     -0.49591110	      0.97602361	      0.39424713	     36.71682939	      1.16555841	     -0.60085027	    -28.54633153	     15.03869421	     -1.40461566	     17.26601202	      2.43550642	     -3.65269684	    -18.73854311	     20.56852239	     -6.63725324	      2.03346929	      0.83828540	      1.55890325
      2.04000000	    -11.84477795	     -1.39166777	     -2.86182915	     -0.49425318	      0.97590031	      0.39483593	     36.90837457	      1.23540248	     -0.58336665	    -27.93457782	     14.91479725	     -1.24967288	     17.14345769	      2.39755397	     -3.66955061	    -18.74506568	     20.69751438	     -6.63885379	      1.97972442	      0.82086903	      1.55396881
      2.05000000	    -11.82308667	     -1.39031865	     -2.89545345	     -0.49249733	      0.97577750	      0.39542807	     37.08058217	      1.29484567	     -0.58577987	    -27.33360667	     14.80737631	     -1.04933353	     17.00087731	      2.35899291	     -3.71315459	    -18.74436250	     20.83569451	     -6.63907226	      1.91837182	      0.80989853	      1.53723161
      2.06000000	    -11.80237358	     -1.36963562	     -2.92362972	     -0.49066431	      0.97562833	      0.39603272	     37.25204398	      1.32708972	     -0.60024890	    -26.75260249	     14.72029023	     -0.86685400	     16.84997537	      2.34326576	     -3.73808000	    -18.73387715	     20.97086671	     -6.63783517	      1.86110814	      0.77630307	      1.52340335
      2.07000000	    -11.75613047	     -1.35006464	     -2.94909084	     -0.48871366	      0.97550268	      0.39663018	     37.38850402	      1.34434148	     -0.66442892	    -26.18836528	     14.68524979	     -0.56810757	     16.66005787	      2.32520803	     -3.80493649	    -18.71172029	     21.10626989	     -6.63188563	      1.77903200	      0.75265157	      1.48675320
      2.08000000	    -11.72397999	     -1.31466252	     -2.96881389	     -0.48669171	      0.97532705	      0.39722939	     37.53672613	      1.33991173	     -0.73854308	    -25.64505607	     14.65353064	     -0.32943364	     16.47897723	      2.32811316	     -3.83805594	    -18.68632558	     21.24459462	     -6.62801933	      1.71623154	      0.71496111	      1.45571094
      2.09000000	    -11.68971467	     -1.27510897	     -2.98103508	     -0.48457240	      0.97513348	      0.39783179	     37.67542394	      1.32177706	     -0.83725029	    -25.12353337	     14.64276684	     -0.10240815	     16.28756530	      2.33728806	     -3.86873934	    -18.65598334	     21.38789728	     -6.62358042	      1.65499794	      0.67649928	      1.41269903
      2.10000000	    -11.66267222	     -1.23032125	     -2.98688705	     -0.48236983	      0.97490437	      0.39844374	     37.81558933	      1.29426745	     -0.93845415	    -24.62814918	     14.63252151	      0.07341307	     16.09944191	      2.35445486	     -3.87891710	    -18.62791362	     21.54829983	     -6.61922906	      1.60447096	      0.63386416	      1.37044436
      2.11000000	    -11.63331799	     -1.18412551	     -2.98689702	     -0.48006017	      0.97466326	      0.39904943	     37.94516012	      1.25793163	     -1.04433134	    -24.16227425	     14.63284345	      0.23737103	     15.90176758	      2.37279213	     -3.90181423	    -18.59718628	     21.70472961	     -6.61327624	      1.55732028	      0.59917522	      1.31391659
      2.12000000	    -11.60315405	     -1.14026089	     -2.98484256	     -0.47764357	      0.97441208	      0.39968068	     38.06426941	      1.22231729	     -1.14540720	    -23.72768857	     14.63190066	      0.38711888	     15.69695680	      2.38697965	     -3.92783384	    -18.56801146	     21.85948576	     -6.60510414	      1.51323122	      0.56674131	      1.25545474
      2.13000000	    -11.56360524	     -1.10244057	     -2.98089743	     -0.47510466	      0.97416854	      0.40032618	     38.16083322	      1.18924832	     -1.24177865	    -23.32239150	     14.63641403	      0.54237671	     15.47334691	      2.39324937	     -3.96354929	    -18.53639411	     22.00796102	     -6.59117985	      1.46353526	      0.54357211	      1.19166230
      2.14000000	    -11.56729968	     -1.04160280	     -2.98207767	     -0.47248015	      0.97382309	      0.40099020	     38.30384958	      1.14339910	     -1.29620456	    -22.96239536	     14.62773981	      0.58104006	     15.29360943	      2.42294739	     -3.98718033	    -18.51087850	     22.17152470	     -6.59042256	      1.47317777	      0.50032611	      1.13117848
      2.15000000	    -11.51609210	     -1.01537310	     -2.96967317	     -0.46971271	      0.97356314	      0.40164505	     38.35734415	      1.11570399	     -1.37856009	    -22.60652980	     14.63277992	      0.68511332	     15.05372921	      2.42286375	     -3.98333473	    -18.50399887	     22.36786046	     -6.57150195	      1.41788839	      0.49630776	      1.08426429
      2.16000000	    -11.51346760	     -0.96064945	     -2.96820034	     -0.46682220	      0.97319454	      0.40235958	     38.46450258	      1.07645220	     -1.41843892	    -22.30391247	     14.64296444	      0.72065320	     14.85059881	      2.44417550	     -4.00813605	    -18.47953708	     22.53699990	     -6.56644176	      1.43545592	      0.46161715	      1.00930258
      2.17000000	    -11.44846118	     -0.93359772	     -2.95377894	     -0.46379626	      0.97290731	      0.40306811	     38.47432062	      1.04988035	     -1.48163234	    -22.00470435	     14.68087223	      0.80084318	     14.58395818	      2.44403573	     -3.99858253	    -18.48265554	     22.74741695	     -6.53920380	      1.37816169	      0.45672432	      0.96870468
      2.18000000	    -11.38801041	     -0.89969035	     -2.94994377	     -0.46060794	      0.97259380	      0.40383975	     38.47471588	      1.02814924	     -1.51453857	    -21.74095821	     14.71773737	      0.87040618	     14.30094068	      2.44436391	     -4.01958475	    -18.46224129	     22.93253365	     -6.50539224	      1.33999200	      0.44744087	      0.90045524
      2.19000000	    -11.39124859	     -0.84573788	     -2.93900447	     -0.45735262	      0.97212008	      0.40464172	     38.53967814	      0.99377761	     -1.49962995	    -21.52341324	     14.74483251	      0.88338226	     14.09715039	      2.46501377	     -4.01148583	    -18.47151809	     23.14122329	     -6.49995375	      1.38400757	      0.41738949	      0.83528778
